<svg version="1.0" xmlns="http://www.w3.org/2000/svg" width="70.667" height="70.667" viewBox="0 0 53 53"><g fill="#fff"><path d="M19.5 1.9C12.5 3.7 6.9 8.3 3.4 15 1 19.7 1 29.4 3.4 34 8 42.8 17.2 48.5 25.7 47.8c3.7-.3 3.8-.5 4.4-4.5.3-2.4.4-4.3.2-4.3s-1.4 1.2-2.7 2.7c-3.3 3.8-7 1.6-9.1-5.5-.6-2.1-.4-2.2 5.4-2.2 5.4 0 6.1-.2 6.1-2s-.7-2-6.5-2H17V19h15v3.4c0 2.9.3 3.3 2 2.9 1.4-.4 2-1.4 2-3.5 0-2.8.2-2.9 3.8-2.6 3.6.3 3.7.4 4 4.8.6 8.1 4.2 8.9 4.2.9 0-14.4-15-26.5-28.5-23zM28.1 8c.9 1.4 2 3.5 2.4 4.7.6 2.2.4 2.3-5.9 2.3-3.6 0-6.6-.2-6.6-.5 0-.9 3.1-6.8 4.3-8.3C23.7 4.4 26 5.1 28.1 8zm-12.8 3c-1.4 3.4-2.1 4-4.5 4-2.5 0-2.7-.2-1.9-1.9 1.1-1.9 6-6 7.3-6.1.3 0-.1 1.8-.9 4zm23.5.4c3 2.6 2.8 3.6-.7 3.6-2.2 0-3-.6-3.5-2.4-.3-1.3-.9-3.2-1.3-4.3-.6-1.6-.5-1.7 1.3-.3 1 .8 2.9 2.3 4.2 3.4zM13 24.5V30H9.6C6 30 5 28.8 5 24.5S6 19 9.6 19H13v5.5zM15.3 38c1.9 4.8.9 5-3.8.9-4.2-3.8-4.4-4.9-.7-4.9 2.4 0 3.1.6 4.5 4z"/><path d="M34.7 29.7c-1.2 1.1-.8 19.1.4 19.9.6.3 2.3-.6 3.8-2l2.8-2.7 1.8 4.1c1.2 2.6 2.5 4 3.7 4 2.3 0 2.3-.2-.3-5.1-1.1-2.3-1.9-4.2-1.7-4.4.2-.1 1.7-.7 3.3-1.2 1.7-.5 3-1.5 3-2.1 0-1.3-13.3-11.2-15.1-11.2-.6 0-1.4.3-1.7.7z"/></g></svg>