<svg width="57" height="47" viewBox="0 0 57 47" fill="none" xmlns="http://www.w3.org/2000/svg"><path fill-rule="evenodd" clip-rule="evenodd" d="M27.366 9.649C12.926 15.117.824 19.876.473 20.223c-1.311 1.295.79 2.72 7.375 4.995l6.704 2.317L29.05 18.8c7.974-4.805 15.068-9.029 15.766-9.387 1.898-.975-1.579 2.439-12.573 12.346l-9.731 8.769-.453 6.197c-.286 3.919-.219 6.428.184 6.826.425.42 1.946-.624 4.59-3.149l3.955-3.776 6.636 4.937c7.025 5.225 9.242 5.994 10.176 3.527.293-.775 2.583-10.63 5.09-21.901C57.422 1.893 57.528.713 54.784.005c-.64-.166-12.978 4.174-27.42 9.643z" fill="#fff"/></svg>