<svg width="65" height="38" viewBox="0 0 65 38" fill="none" xmlns="http://www.w3.org/2000/svg"><path fill-rule="evenodd" clip-rule="evenodd" d="M.178 1.591C-1.45 5.759 8.44 24.108 15.876 30.711c4.386 3.897 10.161 6.526 15.209 6.924 6.026.476 6.687-.094 6.687-5.766 0-3.423.233-4.73.888-4.977 1.52-.574 4.836 1.585 9.732 6.334l4.71 4.569h4.572c5.549 0 6.566-.336 6.566-2.166 0-1.675-4.333-7.552-8.43-11.434-1.602-1.518-2.914-3.132-2.914-3.585 0-.453 1.66-3.252 3.69-6.219 4.675-6.837 6.52-10.396 6.273-12.1-.176-1.214-.628-1.365-4.593-1.533-6.561-.278-6.873-.113-9.383 4.987-3.538 7.185-8.848 13.533-10.487 12.537-.36-.219-.624-3.741-.624-8.318 0-6.038-.21-8.11-.88-8.657-.575-.47-3.133-.656-7.397-.54-5.62.153-6.547.327-6.729 1.26-.116.596.377 1.819 1.096 2.716 1.155 1.445 1.306 2.483 1.306 9.024 0 7.303-.017 7.39-1.412 7.194-1.933-.271-6.744-7.29-9.613-14.024C12.893 4 11.53 1.385 11.114 1.126 10.698.866 8.152.65 5.455.644 1.61.637.47.841.178 1.591z" fill="#fff"/></svg>