<svg width="50" height="51" viewBox="0 0 50 51" fill="none" xmlns="http://www.w3.org/2000/svg"><path fill-rule="evenodd" clip-rule="evenodd" d="M19.06 1.379c-4.485 1.235-7.738 3.17-11.173 6.647C2.63 13.348.456 18.49.466 25.59c.01 6.994 2.24 12.302 7.278 17.32 5.184 5.163 10.468 7.398 17.492 7.398 7.043 0 12.336-2.218 17.37-7.278C47.766 37.843 50 32.556 50 25.528c0-7.06-2.22-12.36-7.273-17.36C37.324 2.825 32.225.704 24.956.777c-2.118.022-4.77.293-5.895.603zm15.142 15.94c2.724.827 2.986 1.548 2.986 8.209 0 8.6-.277 8.804-11.953 8.804-11.22 0-11.799-.355-12.063-7.4-.317-8.485.484-9.688 6.758-10.136 4.598-.328 12.411-.042 14.272.523zm-12.009 8.209v4.87l1.63-.958c4.274-2.511 6.169-3.713 6.169-3.912 0-.2-1.895-1.401-6.17-3.912l-1.629-.958v4.87z" fill="#fff"/></svg>