<svg width="45" height="64" viewBox="0 0 45 64" fill="none" xmlns="http://www.w3.org/2000/svg"><path d="M0 58.366c0 1.207.402 2.817 1.607 4.024C2.813 63.598 4.017 64 5.625 64c2.009 0 3.214-.402 4.42-1.207 1.205-.805 1.607-2.013 1.607-3.622 0-1.61-.402-3.22-.804-4.025-.803-.805-2.009-1.207-4.018-1.207-1.205 0-2.812.402-4.42 1.207C.805 55.55 0 56.756 0 58.366zM32.946 11.28C36.964 4.84 36.161.01 36.161.01S24.91-.39 20.089 3.633c-4.42 3.622-5.223 9.659-3.214 12.476-1.607 1.61-3.616 2.817-5.625 3.622.402-8.451.402-12.476.402-12.878-2.01-1.208-3.616-1.61-5.223-1.61-2.01 0-3.215.402-4.822 1.61L1.205 8.06v35.818c0 4.427 1.607 6.841 4.42 6.841 3.214 0 4.821-2.414 4.821-6.841v-3.622c1.608-3.22 3.617-5.232 5.625-6.842 1.608 2.415 8.036 7.244 15.67 5.634C37.768 37.841 45 29.39 45 29.39s-11.652-9.257-20.893-8.05c-5.223 1.208-8.437 6.842-8.437 10.062-2.01 1.207-3.616 2.415-4.822 4.024 0-2.817 0-6.439.402-10.866v-2.414c2.813-1.208 5.223-2.817 7.232-4.83 4.42 2.013 11.652-1.207 14.464-6.036z" fill="#fff"/></svg>