<svg width="34" height="38" viewBox="0 0 34 38" fill="none" xmlns="http://www.w3.org/2000/svg"><path fill-rule="evenodd" clip-rule="evenodd" d="M33.603 37.764c-.074-.189-.122-.333-.124-.386-.839-2.499-2.428-4.355-4.402-6.204-2.636 1.935-10.24 4.907-17.628 1.902C5.616 30.671 0 22.29 0 22.29s14.44-5.93 23.749-2.96c5.44 2.098 7.126 7.41 6.803 9.617a20.84 20.84 0 013.05 2.9v5.918zm0-15.577a18.36 18.36 0 01-4.118-3.91c-5.361.73-12.015-3.546-13.675-7.916C13.32 3.806 15.135 0 15.135 0s11.972 1.976 15.937 6.302c3.187 4.027 2.944 9.061.316 11.311.583.68 1.371 1.357 2.215 2.032v2.542z" fill="#fff"/></svg>