<svg width="34" height="38" viewBox="0 0 34 38" fill="none" xmlns="http://www.w3.org/2000/svg">
<path fill-rule="evenodd" clip-rule="evenodd" d="M33.6029 37.7637C33.5292 37.5755 33.4806 37.4311 33.4791 37.3783C32.6404 34.8792 31.0509 33.0229 29.0772 31.1738C26.4407 33.1093 18.8364 36.0811 11.449 33.0762C5.61599 30.6708 0 22.2886 0 22.2886C0 22.2886 14.4404 16.3594 23.7486 19.3283C29.1887 21.4267 30.8749 26.7391 30.5523 28.9456C31.7297 29.8653 32.6915 30.7891 33.6029 31.8459V37.7637ZM33.6029 22.1871C31.9281 21.0389 30.5533 19.6611 29.4849 18.2777C24.124 19.0069 17.4699 14.7308 15.81 10.361C13.3202 3.80628 15.1355 0 15.1355 0C15.1355 0 27.1066 1.97592 31.0715 6.30249C34.2593 10.3293 34.0159 15.3635 31.3882 17.6133C31.9706 18.2934 32.7592 18.9696 33.6029 19.6448V22.1871Z" fill="white"/>
</svg>
