<svg width="45" height="64" viewBox="0 0 45 64" fill="none" xmlns="http://www.w3.org/2000/svg">
<path d="M0 58.3658C0 59.5731 0.401786 61.1829 1.60714 62.3902C2.8125 63.5976 4.01786 64 5.625 64C7.63393 64 8.83929 63.5976 10.0446 62.7927C11.25 61.9878 11.6518 60.7804 11.6518 59.1707C11.6518 57.5609 11.25 55.9511 10.8482 55.1462C10.0446 54.3413 8.83929 53.9389 6.83036 53.9389C5.625 53.9389 4.01786 54.3413 2.41071 55.1462C0.803571 55.5486 0 56.756 0 58.3658ZM32.9464 11.2797C36.9643 4.84052 36.1607 0.011179 36.1607 0.011179C36.1607 0.011179 24.9107 -0.391267 20.0893 3.63319C15.6696 7.2552 14.8661 13.2919 16.875 16.109C15.2679 17.7188 13.2589 18.9261 11.25 19.731C11.6518 11.2797 11.6518 7.2552 11.6518 6.85275C9.64286 5.64542 8.03571 5.24297 6.42857 5.24297C4.41964 5.24297 3.21429 5.64542 1.60714 6.85275L1.20536 8.06009C1.20536 12.487 1.20536 17.7188 1.20536 23.7555V25.7677V30.9995V35.8288C1.20536 37.4386 1.20536 38.6459 1.20536 39.8533C1.20536 41.0606 1.20536 41.8655 1.20536 42.6704V43.8777C1.20536 48.3046 2.8125 50.7193 5.625 50.7193C8.83929 50.7193 10.4464 48.3046 10.4464 43.8777C10.4464 43.8777 10.4464 42.2679 10.4464 40.2557C12.0536 37.0362 14.0625 35.0239 16.0714 33.4142C17.6786 35.8288 24.1071 40.6582 31.7411 39.0484C37.7679 37.841 45 29.3897 45 29.3897C45 29.3897 33.3482 20.1334 24.1071 21.3408C18.8839 22.5481 15.6696 28.1824 15.6696 31.4019C13.6607 32.6093 12.0536 33.8166 10.8482 35.4264C10.8482 32.6093 10.8482 28.9872 11.25 24.5603C11.25 23.7555 11.25 22.9506 11.25 22.1457C14.0625 20.9383 16.4732 19.3286 18.4821 17.3163C22.9018 19.3286 30.1339 16.109 32.9464 11.2797Z" fill="white"/>
</svg>
