<svg version="1.0" xmlns="http://www.w3.org/2000/svg"
 width="53.000000pt" height="53.000000pt" viewBox="0 0 53.000000 53.000000"
 preserveAspectRatio="xMidYMid meet">

<g transform="translate(0.000000,53.000000) scale(0.100000,-0.100000)"
fill="#ffffff" stroke="none">
<path d="M195 511 c-70 -18 -126 -64 -161 -131 -24 -47 -24 -144 0 -190 46
-88 138 -145 223 -138 37 3 38 5 44 45 3 24 4 43 2 43 -2 0 -14 -12 -27 -27
-33 -38 -70 -16 -91 55 -6 21 -4 22 54 22 54 0 61 2 61 20 0 18 -7 20 -65 20
l-65 0 0 55 0 55 75 0 75 0 0 -34 c0 -29 3 -33 20 -29 14 4 20 14 20 35 0 28
2 29 38 26 36 -3 37 -4 40 -48 6 -81 42 -89 42 -9 0 144 -150 265 -285 230z
m86 -61 c9 -14 20 -35 24 -47 6 -22 4 -23 -59 -23 -36 0 -66 2 -66 5 0 9 31
68 43 83 14 18 37 11 58 -18z m-128 -30 c-14 -34 -21 -40 -45 -40 -25 0 -27 2
-19 19 11 19 60 60 73 61 3 0 -1 -18 -9 -40z m235 -4 c30 -26 28 -36 -7 -36
-22 0 -30 6 -35 24 -3 13 -9 32 -13 43 -6 16 -5 17 13 3 10 -8 29 -23 42 -34z
m-258 -131 l0 -55 -34 0 c-36 0 -46 12 -46 55 0 43 10 55 46 55 l34 0 0 -55z
m23 -135 c19 -48 9 -50 -38 -9 -42 38 -44 49 -7 49 24 0 31 -6 45 -40z"/>
<path d="M347 233 c-12 -11 -8 -191 4 -199 6 -3 23 6 38 20 l28 27 18 -41 c12
-26 25 -40 37 -40 23 0 23 2 -3 51 -11 23 -19 42 -17 44 2 1 17 7 33 12 17 5
30 15 30 21 0 13 -133 112 -151 112 -6 0 -14 -3 -17 -7z"/>
</g>
</svg>
