<svg width="57" height="47" viewBox="0 0 57 47" fill="none" xmlns="http://www.w3.org/2000/svg">
<path fill-rule="evenodd" clip-rule="evenodd" d="M27.3657 9.6485C12.9256 15.1178 0.824048 19.8762 0.473489 20.2225C-0.838097 21.5184 1.26336 22.9428 7.84791 25.2177L14.5523 27.5351L29.0501 18.7988C37.0242 13.9941 44.1184 9.77001 44.8157 9.41174C46.7143 8.43651 43.2373 11.8507 32.2431 21.7577L22.5118 30.5266L22.0592 36.7237C21.7733 40.6427 21.8405 43.1519 22.243 43.5496C22.6677 43.9693 24.1892 42.9258 26.8333 40.401L30.7877 36.6247L37.4242 41.5616C44.4493 46.7872 46.6655 47.5558 47.5999 45.0892C47.8934 44.3144 50.1832 34.4582 52.6891 23.1877C57.4226 1.89305 57.529 0.713008 54.7854 0.00460694C54.1452 -0.161375 41.8065 4.1786 27.3657 9.6485Z" fill="white"/>
</svg>
