<svg width="65" height="38" viewBox="0 0 65 38" fill="none" xmlns="http://www.w3.org/2000/svg">
<path fill-rule="evenodd" clip-rule="evenodd" d="M0.177802 1.59101C-1.44998 5.7591 8.44085 24.108 15.8758 30.7119C20.2619 34.6081 26.037 37.2371 31.0848 37.6354C37.1107 38.111 37.7718 37.5406 37.7718 31.8694C37.7718 28.4464 38.0049 27.139 38.6603 26.8919C40.1803 26.3184 43.4964 28.4767 48.3923 33.2264L53.1011 37.7945H57.6738C63.2226 37.7945 64.2397 37.4589 64.2397 35.6287C64.2397 33.9535 59.9072 28.0766 55.8103 24.1953C54.2077 22.6767 52.8963 21.0634 52.8963 20.61C52.8963 20.1573 54.5569 17.3585 56.5861 14.3913C61.2615 7.55392 63.1066 3.99525 62.859 2.29023C62.6832 1.07697 62.2313 0.925849 58.2662 0.75801C51.7046 0.479931 51.3933 0.645293 48.8826 5.74547C45.3447 12.9303 40.0354 19.2778 38.3963 18.2819C38.0364 18.0633 37.7718 14.5406 37.7718 9.96373C37.7718 3.92588 37.5613 1.85361 36.892 1.30736C36.3167 0.837904 33.7593 0.651486 29.4949 0.767301C23.8742 0.920276 22.9478 1.09369 22.7663 2.02764C22.6497 2.62343 23.1432 3.84599 23.8616 4.7434C25.0174 6.18767 25.168 7.22629 25.168 13.767C25.168 21.0702 25.151 21.1563 23.7557 20.9612C21.8229 20.6899 17.0121 13.671 14.1434 6.93706C12.8925 4.0002 11.5294 1.38539 11.1141 1.12589C10.6982 0.865774 8.15159 0.649628 5.45501 0.644054C1.60959 0.636622 0.47021 0.841001 0.177802 1.59101Z" fill="white"/>
</svg>
