<svg width="50" height="51" viewBox="0 0 50 51" fill="none" xmlns="http://www.w3.org/2000/svg">
<path fill-rule="evenodd" clip-rule="evenodd" d="M19.0609 1.37861C14.5749 2.61424 11.322 4.54966 7.88741 8.02559C2.6286 13.3482 0.455797 18.4908 0.465794 25.5905C0.475791 32.5837 2.7064 37.8915 7.74441 42.9097C12.928 48.0731 18.212 50.3082 25.2355 50.3082C32.279 50.3082 37.5721 48.0905 42.6062 43.0302C47.7663 37.8433 50 32.5559 50 25.5279C50 18.4673 47.7798 13.1677 42.7266 8.16868C37.3244 2.82387 32.2246 0.702739 24.9556 0.775807C22.8384 0.797553 20.1858 1.06851 19.0609 1.37861ZM34.2019 17.3191C36.9262 18.1463 37.1883 18.8666 37.1883 25.5279C37.1883 34.1281 36.9115 34.3321 25.2355 34.3321C14.0155 34.3321 13.4361 33.9768 13.1723 26.9314C12.8546 18.4473 13.6565 17.2443 19.9298 16.7963C24.5279 16.4675 32.3411 16.7541 34.2019 17.3191ZM22.193 25.5279V30.3982L23.8229 29.44C28.0968 26.9288 29.9919 25.7271 29.9919 25.5279C29.9919 25.3287 28.0968 24.127 23.8229 21.6157L22.193 20.6576V25.5279Z" fill="white"/>
</svg>
